<?xml version="1.0" encoding="UTF-8"?>
<svg id="Layer_1" xmlns="http://www.w3.org/2000/svg" version="1.1" viewBox="0 0 300 300">
  <!-- Generator: Adobe Illustrator 29.1.0, SVG Export Plug-In . SVG Version: 2.1.0 Build 142)  -->
  <defs>
    <style>
      .st0 {
        fill: #fff;
      }

      .st1 {
        fill: #0073b1;
      }
    </style>
  </defs>
  <circle class="st1" cx="150" cy="145" r="145"/>
  <g>
    <path class="st0" d="M83.87,84.43v.65c.29,2.98,1.02,5.49,2.18,7.53,2.04,3.49,5.38,5.89,10.04,7.2l2.29.55h5.46c2.33,0,5.57-1.42,9.71-4.26,2.84-3.06,4.44-6.15,4.8-9.28v-4.91c-.22-2.18-1.49-4.95-3.82-8.29-2.76-2.55-5.49-4.11-8.18-4.69l-3.06-.55h-4.26c-3.27.29-6.4,1.53-9.38,3.71-3.86,3.49-5.78,7.6-5.78,12.33Z"/>
    <path class="st0" d="M85.62,113.35v88.83c0,1.02.51,1.53,1.53,1.53h28.7c.51-.15.76-.65.76-1.53v-87.84c0-1.24-.25-1.89-.76-1.96h-29.25l-.98.98Z"/>
    <path class="st0" d="M163.53,123.06v-9.93c-.22-.51-.73-.76-1.53-.76h-27.94c-.65,0-1.16.25-1.53.76l.22,7.42v36.01l-.22,46.6.76.55h29.46l.76-.76v-50.63c0-5.97,1.64-10.4,4.91-13.31,3.06-2.98,6.55-4.47,10.48-4.47h1.09c6.77,0,11.17,3.6,13.2,10.8.8,2.11,1.2,6,1.2,11.68v44.41l-.22.98c.22.87.8,1.31,1.75,1.31h28.48l.76-.76v-51.94c0-19.93-7.17-32.81-21.5-38.63-2.84-1.16-7.35-2-13.53-2.51-6.91.58-11.82,1.67-14.73,3.27-4.15,2.04-7.89,5.35-11.24,9.93h-.65Z"/>
  </g>
</svg>