<?xml version="1.0" encoding="UTF-8"?>
<svg id="Layer_1" xmlns="http://www.w3.org/2000/svg" version="1.1" viewBox="0 0 300 300">
  <!-- Generator: Adobe Illustrator 29.1.0, SVG Export Plug-In . SVG Version: 2.1.0 Build 142)  -->
  <defs>
    <style>
      .st0 {
        fill: #fff;
      }

      .st1 {
        fill: #1773ea;
      }
    </style>
  </defs>
  <circle class="st1" cx="150" cy="150" r="145"/>
  <path class="st0" d="M161.96,209.29c0,12.69-.07,25.37.05,38.05.03,2.72-.81,3.59-3.55,3.55-9.71-.14-19.42-.14-29.13.03-2.9.05-3.7-.91-3.69-3.72.09-25.07.05-50.15.05-75.22q0-4.03-4.1-4.04c-7.83-.02-15.66-.1-23.49,0-2.1.02-2.76-.69-2.75-2.73.08-9.41.1-18.83,0-28.24-.02-2.29.9-2.85,3-2.83,7.93.08,15.86-.08,23.78.08,2.73.06,3.61-.73,3.6-3.49-.03-9.41-.39-18.87.44-28.22,1.19-13.4,6.67-24.81,18.51-32.31,6.41-4.06,13.57-5.41,21.04-5.19,8.71.26,17.42.82,26.14,1.07,2.45.07,3.27.9,3.23,3.31-.11,7.33-.11,14.67,0,22,.04,2.4-.9,3-3.15,3.02-5.73.06-11.55-.18-17.17.72-8.61,1.39-12.87,7.16-12.84,15.89.02,6.64.08,13.28-.04,19.92-.04,2.41.67,3.3,3.2,3.25,8.52-.14,17.05,0,25.57-.09,2.4-.03,3.15.72,2.74,3.15-1.59,9.37-3.11,18.76-4.5,28.17-.31,2.08-1.21,2.57-3.12,2.55-6.84-.08-13.68.07-20.51-.07-2.55-.05-3.42.67-3.4,3.34.13,12.68.06,25.37.06,38.05h.01Z"/>
</svg>