<?xml version="1.0" encoding="UTF-8"?>
<svg id="Layer_1" xmlns="http://www.w3.org/2000/svg" version="1.1" viewBox="0 0 300 300">
  <!-- Generator: Adobe Illustrator 29.1.0, SVG Export Plug-In . SVG Version: 2.1.0 Build 142)  -->
  <defs>
    <style>
      .st0 {
        fill: #fff;
      }

      .st1 {
        fill: red;
      }
    </style>
  </defs>
  <circle class="st1" cx="150" cy="150" r="145"/>
  <path class="st0" d="M149.97,207.15c-14.93,0-29.87.19-44.8-.04-21.82-.34-36.53-15.15-36.77-36.89-.15-13.6-.17-27.2.01-40.8.28-21.19,15.12-36.28,36.38-36.47,30.13-.27,60.27-.27,90.4,0,21.24.19,36.01,15.19,36.35,36.48.22,13.86.27,27.74-.02,41.6-.44,20.93-15.05,35.62-35.95,36.06-15.19.32-30.4.06-45.6.06ZM177.73,152.94c.04-.98.07-1.96.11-2.94-13.73-7.37-27.33-15.02-41.29-21.94-4.36-2.16-6.91.97-6.9,5.72,0,11.17-.01,22.33.01,33.5.01,6.12,3.43,7.42,8.43,5.4,4.43-1.78,8.65-4.08,12.93-6.22,8.92-4.48,17.8-9,26.7-13.51Z"/>
</svg>