<?xml version="1.0" encoding="UTF-8"?>
<svg id="Layer_1" xmlns="http://www.w3.org/2000/svg" version="1.1" xmlns:xlink="http://www.w3.org/1999/xlink" viewBox="0 0 300 300">
  <!-- Generator: Adobe Illustrator 29.1.0, SVG Export Plug-In . SVG Version: 2.1.0 Build 142)  -->
  <defs>
    <style>
      .st0 {
        fill: #fff;
      }

      .st1 {
        fill: url(#linear-gradient);
      }
    </style>
    <linearGradient id="linear-gradient" x1="227.3" y1="37.25" x2="71.34" y2="264.74" gradientUnits="userSpaceOnUse">
      <stop offset="0" stop-color="#9137a4"/>
      <stop offset="1" stop-color="#f7b40f"/>
    </linearGradient>
  </defs>
  <circle class="st1" cx="150" cy="150" r="145"/>
  <g>
    <path class="st0" d="M64.26,150.75c0-13.1.01-26.2,0-39.31-.02-25.7,20.51-46.37,46.22-46.42,26.3-.05,52.61-.05,78.92,0,25.44.06,46.19,20.76,46.25,46.19.06,26,.23,52.01-.08,78.01-.23,19.65-9.61,33.9-27.23,42.59-6.24,3.08-13,4.25-19.94,4.25-25.7,0-51.4.09-77.1-.02-26.97-.12-47.07-20.53-47.04-47.5.01-12.6,0-25.2,0-37.79ZM220.48,150.44c0-12.6,0-25.19,0-37.79.01-18.82-13.72-32.62-32.63-32.65-25.39-.04-50.79-.04-76.18.02-18.36.04-32.3,13.63-32.43,31.97-.18,25.69-.19,51.39,0,77.09.13,18.2,14.01,31.8,32.23,31.86,25.7.09,51.39.09,77.09,0,18.09-.06,31.91-14.07,31.92-32.12,0-12.8,0-25.59,0-38.39Z"/>
    <path class="st0" d="M150.05,197.19c-25.51.12-46.6-20.72-46.67-46.12-.06-25.97,20.61-47.16,46.18-47.32,25.51-.16,47.17,21.04,47.38,46.39.21,25.64-21,46.93-46.89,47.06ZM119.29,150.52c.13,17.29,13.9,30.97,30.98,30.79,16.76-.18,30.32-14.06,30.23-30.95-.08-16.69-14.11-30.47-30.85-30.32-16.69.15-30.49,14-30.37,30.48Z"/>
    <path class="st0" d="M195.43,114.66c-5.41-.16-9.69-4.63-9.6-10.03.1-5.66,4.78-10.05,10.46-9.79,5.24.23,9.7,5.02,9.53,10.2-.18,5.42-4.9,9.78-10.4,9.62Z"/>
  </g>
</svg>