<?xml version="1.0" encoding="UTF-8"?>
<svg id="Layer_1" xmlns="http://www.w3.org/2000/svg" version="1.1" viewBox="0 0 600 230">
  <!-- Generator: Adobe Illustrator 29.1.0, SVG Export Plug-In . SVG Version: 2.1.0 Build 142)  -->
  <defs>
    <style>
      .st0 {
        fill: #f05523;
      }

      .st1 {
        fill: #f16222;
      }

      .st2 {
        fill: #fbb863;
      }

      .st3 {
        fill: #db4926;
      }
    </style>
  </defs>
  <g>
    <g>
      <path class="st2" d="M27.29,149.71c-2.06,1.88-29.27,28.16-8.97,55.86,20.3,27.69,56.17,17.78,59.95,16.52,3.78-1.26,28.79-7.55,22.19-46.26-3.25-19.04-25.96-26.75-29.42-27.54s-34.77-6.77-43.74,1.42Z"/>
      <path d="M58.9,224.95c-1.43,0-2.91-.05-4.42-.15-6.86-.47-13.19-2.05-18.81-4.69-6.91-3.24-12.78-8.11-17.44-14.48-4.66-6.36-7.17-13.16-7.47-20.21-.24-5.7.96-11.6,3.56-17.51,4.75-10.78,12.56-17.99,12.9-18.29,3.79-3.46,11.87-4.84,24.02-4.1,10.62.65,19.74,2.64,19.82,2.66,1.78.41,8.34,2.55,14.83,6.94,8.25,5.57,13.32,12.73,14.68,20.69,2.7,15.79.49,28.06-6.55,36.49-5.59,6.69-12.56,8.9-15.19,9.73-.2.06-.38.12-.52.17-.09.03-8.4,2.75-19.4,2.75ZM27.29,149.71l.08.09c-.33.3-8.11,7.47-12.84,18.21-5.88,13.34-4.57,25.96,3.89,37.49,8.49,11.59,20.63,18,36.08,19.07,13.08.9,23.63-2.56,23.73-2.59.14-.05.32-.1.52-.17,18.27-5.78,25.73-21.67,21.58-45.96-1.7-9.98-8.87-16.67-14.58-20.54-6.46-4.37-12.98-6.5-14.75-6.9-1.84-.42-10.59-2.09-19.79-2.65-11.91-.72-20.16.67-23.85,4.04l-.08-.09Z"/>
    </g>
    <path class="st0" d="M20.37,177.05c1.4-1.25,3.77-4.37,12.9,9.32,7.06,14.46,19.85,19.78,34.14,16.52,1.01-.23,2.69-.69,3.78-.47.79,2.2,2.26,2.25,3.3,1.57,4.88-3.15,9.96-3.31,12.12-1.1,2.07,2.11,2.44,5.11,1.26,7.71-3.66,8.06-9.65,12.3-19.2,13.69-4,.58-26.91,3.3-42.8-10.38-14.3-12.32-15.82-26.01-5.51-36.85Z"/>
    <g>
      <path class="st2" d="M125.54,59.04c-.38-.25-.86-.27-1.26-.06-7.71,4.05-24.61-24.73-46.17-8.17-.37.28.21,38.02-.16,38.33,0-6.31-.07-49.52-.19-54.76.66-23.13-7.83-26.28-12.4-25.96-3.33.23-4.4,3.85-4.09,12.9.63,34.14.47,64.51.47,64.51,0,0-.79.31-1.73,0,0-2.36-.15-45.8-.47-50.82-1.73-26.75-19.04-19.67-16.52-8.18,1.57,16.68,2.36,59.63,2.36,61.36-.31.16-1.73.63-2.67,2.05,0-5.51-.4-29.37-.63-34.93-.79-18.72-13.53-25.65-12.74-14.63.79,13.69,2.05,16.68-2.52,17.62-.79.31-1.73,5.19-1.57,11.96.24,10.39.34,69.87,2.2,95.35,3.3,45.31,47.52,51.45,72.85,11.8,6.23-9.75,9.76-37.61,14.63-76.47,0,0,1.26-8.65,5.98-14.63,4.16-5.27,5.3-9.81,1.73-11.33,7.19-1.94,10.2-11.08,2.9-15.93ZM95.07,94.95c-.28,2.36-.4,8.49-.43,8.97-1.73-1.57-5.35-5.98-6.29-7.24,0-1.1.63-4.25,1.1-14.48.47-10.23-3.93-25.49,11.96-17.94,6.77,4.09,8.02,6.29,9.6,7.87-8.5,2.36-13.06,7.4-15.93,22.81Z"/>
      <path d="M60.34,203.81c-2.56,0-5.09-.31-7.54-.93-6.84-1.73-12.78-5.86-17.16-11.95-4.75-6.6-7.54-15.12-8.28-25.33-1.43-19.67-1.83-59.94-2.04-81.58-.06-6.38-.11-11.41-.17-13.78-.15-6.46.74-11.68,1.63-12.04,3.67-.76,3.52-2.74,2.9-11.05-.14-1.87-.3-3.99-.44-6.49-.18-2.48.34-4.25,1.44-4.98.8-.53,1.88-.49,3.05.1,3.86,1.97,8,9.3,8.42,19.5.24,5.6.62,28.79.63,34.66.83-1.1,1.91-1.57,2.39-1.78.04-.02.08-.04.11-.05-.01-2.59-.8-44.77-2.36-61.3-.77-3.49.26-6.9,2.67-8.89,1.86-1.53,4.15-1.88,6.28-.95,4.3,1.86,7.12,8.43,7.74,18.01.32,4.91.47,47.57.47,50.76.74.23,1.37.06,1.56,0,0-1.56.14-31.43-.47-64.45-.32-9.24.81-12.76,4.17-12.99,1.44-.1,4.24.1,6.81,2.57,4.1,3.94,6.01,11.84,5.68,23.48.05,1.88.08,8.77.11,17.1.02-.49.06-.72.1-.75,14-10.75,26.06-2.45,34.87,3.62,4.83,3.32,8.64,5.95,11.32,4.54.43-.22.94-.2,1.35.07,3.17,2.11,4.68,5.23,4.14,8.57-.57,3.49-3.24,6.39-6.83,7.45.98.47,1.6,1.21,1.84,2.18.55,2.16-.78,5.42-3.76,9.19-4.65,5.89-5.95,14.5-5.96,14.59-4.86,38.71-8.37,66.68-14.65,76.5-6.41,10.03-14.41,17.67-23.14,22.08-5.62,2.84-11.35,4.28-16.89,4.28ZM31.98,35.49c-.44,0-.85.12-1.2.35-1.05.7-1.54,2.41-1.37,4.83.14,2.5.3,4.62.44,6.49.61,8.23.78,10.44-3.03,11.23-.71.29-1.66,5.06-1.5,11.87.06,2.37.1,7.41.17,13.78.21,21.63.6,61.9,2.04,81.56,1.43,19.59,10.89,33.47,25.31,37.12,2.45.62,4.95.92,7.47.92,14.28,0,29.3-9.68,39.91-26.28,6.26-9.79,9.76-37.74,14.62-76.43.01-.09,1.32-8.75,6-14.68,2.94-3.72,4.26-6.93,3.73-9.04-.25-.99-.91-1.71-1.96-2.16l-.23-.1.24-.07c3.64-.98,6.36-3.88,6.93-7.38.53-3.27-.95-6.33-4.06-8.4-.35-.23-.8-.26-1.17-.06-2.77,1.45-6.62-1.2-11.5-4.55-8.76-6.03-20.76-14.29-34.64-3.64-.16.55-.11,10.36-.06,19.03.07,13.49.07,18.54-.08,19.23h0s0,.01,0,.01c0,.04-.02.06-.03.07l-.14.12v-.19c0-7.33-.07-49.62-.19-54.75.33-11.59-1.56-19.45-5.63-23.36-2.52-2.42-5.26-2.62-6.67-2.52-3.24.22-4.32,3.7-4.01,12.81.62,33.76.47,64.21.47,64.51v.06s-.06.02-.06.02c-.03.01-.83.32-1.79,0l-.06-.02v-.06c0-2.62-.15-45.87-.47-50.82-.62-9.51-3.4-16.02-7.64-17.86-2.07-.9-4.3-.56-6.1.93-2.36,1.95-3.36,5.29-2.61,8.73,1.57,16.68,2.36,59.43,2.36,61.38v.05l-.05.02s-.1.05-.17.08c-.5.22-1.66.72-2.47,1.94l-.16.24v-.29c0-5.38-.39-29.23-.63-34.93-.43-10.13-4.51-17.41-8.33-19.35-.6-.31-1.17-.46-1.68-.46ZM94.71,104.11l-.13-.12c-1.76-1.6-5.41-6.06-6.3-7.25l-.02-.02v-.03c0-.34.06-.85.15-1.7.22-1.97.62-5.64.95-12.78.09-1.98,0-4.19-.09-6.32-.24-5.68-.47-11.05,2.46-12.99,1.96-1.3,5.14-.87,9.72,1.3,5.52,3.34,7.38,5.41,8.74,6.93.3.34.59.66.88.95l.11.11-.14.04c-7.96,2.21-12.84,6.49-15.87,22.74-.21,1.79-.33,5.83-.39,7.77-.02.64-.03,1.07-.04,1.19v.18ZM88.43,96.65c.89,1.19,4.34,5.4,6.13,7.07,0-.21.02-.56.03-.99.06-1.95.18-5.99.39-7.79h0c1.42-7.64,3.29-12.84,5.87-16.35,2.36-3.21,5.44-5.22,9.98-6.5-.26-.27-.52-.55-.79-.85-1.35-1.51-3.2-3.57-8.69-6.89-4.51-2.14-7.63-2.57-9.54-1.31-2.85,1.89-2.62,7.21-2.38,12.84.09,2.14.18,4.35.09,6.34-.33,7.15-.73,10.82-.95,12.79-.09.82-.15,1.32-.15,1.65Z"/>
    </g>
    <path class="st1" d="M61.59,35c.79,1.26,4.56,1.73,15.89,1.57v2.83c-9.6.63-14.16-.31-15.89-.94v-3.46Z"/>
    <path class="st1" d="M61.59,53.83c.79,1.26,4.88,2.25,16.21,2.1v2.83c-9.6.63-14.48-.84-16.21-1.47v-3.46Z"/>
    <path class="st1" d="M44.44,58.92c.79,1.26,4.25,2.2,15.58,2.05v2.83c-9.6.63-13.85-.79-15.58-1.42v-3.46Z"/>
    <path class="st1" d="M25.09,76.03c.79,1.26,8.97,2.99,17.47,2.99v2.83c-7.55.31-15.58-1.26-17.47-2.36v-3.46Z"/>
    <path class="st1" d="M26.82,58.45c.79,1.26,7.24,3.78,15.73,3.78v1.73c-7.55.31-14.79-2.36-16.68-3.46l.94-2.05Z"/>
    <path class="st1" d="M43.81,38.94c.79,1.26,4.72,2.05,16.05,1.89v2.83c-9.6.63-14.32-.63-16.05-1.26v-3.46Z"/>
    <path class="st1" d="M77.8,68.83c.16,1.57,3.15,2.67,11.49,2.2v2.36c-5.35.31-9.6-.31-11.33-.94l-.16-3.62Z"/>
    <path class="st1" d="M90.54,45.7c.79,1.26,2.52,9.13,2.05,16.68,1.1-.31,2.52-.31,3.3-.16,0-.63,0-9.13-1.89-16.52h-3.46Z"/>
    <path class="st0" d="M26.19,58.61c-.63-17.94-.94-32.57,7.24-22.81-5.19-1.1-3.77,3.69-3.46,9.76.31,6.14,1.89,12.12-3.78,13.06Z"/>
    <path class="st0" d="M42.71,25.41c-2.2-4.72.47-18.41,11.8-6.77-2.99-3.15-11.33-3.15-11.8,6.77Z"/>
    <path class="st0" d="M61.12,19.43c.16-10.54,3.15-14.95,12.59-7.4-11.01-14.16-14.79-4.25-12.59,7.4Z"/>
    <path d="M60.34,203.81c-2.56,0-5.09-.31-7.54-.93-6.84-1.73-12.78-5.86-17.16-11.95-4.75-6.6-7.54-15.12-8.28-25.33-1.43-19.67-1.83-59.94-2.04-81.58-.06-6.38-.11-11.41-.17-13.78-.15-6.46.74-11.68,1.63-12.04,3.67-.76,3.52-2.74,2.9-11.05-.14-1.87-.3-3.99-.44-6.49-.18-2.48.34-4.25,1.44-4.98.8-.53,1.88-.49,3.05.1,3.86,1.97,8,9.3,8.42,19.5.24,5.6.62,28.79.63,34.66.83-1.1,1.91-1.57,2.39-1.78.04-.02.08-.04.11-.05-.01-2.59-.8-44.77-2.36-61.3-.77-3.49.26-6.9,2.67-8.89,1.86-1.53,4.15-1.88,6.28-.95,4.3,1.86,7.12,8.43,7.74,18.01.32,4.91.47,47.57.47,50.76.74.23,1.37.06,1.56,0,0-1.56.14-31.43-.47-64.45-.32-9.24.81-12.76,4.17-12.99,1.44-.1,4.24.1,6.81,2.57,4.1,3.94,6.01,11.84,5.68,23.48.05,1.88.08,8.77.11,17.1.02-.49.06-.72.1-.75,14-10.75,26.06-2.45,34.87,3.62,4.83,3.32,8.64,5.95,11.32,4.54.43-.22.94-.2,1.35.07,3.17,2.11,4.68,5.23,4.14,8.57-.57,3.49-3.24,6.39-6.83,7.45.98.47,1.6,1.21,1.84,2.18.55,2.16-.78,5.42-3.76,9.19-4.65,5.89-5.95,14.5-5.96,14.59-4.86,38.71-8.37,66.68-14.65,76.5-6.41,10.03-14.41,17.67-23.14,22.08-5.62,2.84-11.35,4.28-16.89,4.28ZM31.98,35.49c-.44,0-.85.12-1.2.35-1.05.7-1.54,2.41-1.37,4.83.14,2.5.3,4.62.44,6.49.61,8.23.78,10.44-3.03,11.23-.71.29-1.66,5.06-1.5,11.87.06,2.37.1,7.41.17,13.78.21,21.63.6,61.9,2.04,81.56,1.43,19.59,10.89,33.47,25.31,37.12,2.45.62,4.95.92,7.47.92,14.28,0,29.3-9.68,39.91-26.28,6.26-9.79,9.76-37.74,14.62-76.43.01-.09,1.32-8.75,6-14.68,2.94-3.72,4.26-6.93,3.73-9.04-.25-.99-.91-1.71-1.96-2.16l-.23-.1.24-.07c3.64-.98,6.36-3.88,6.93-7.38.53-3.27-.95-6.33-4.06-8.4-.35-.23-.8-.26-1.17-.06-2.77,1.45-6.62-1.2-11.5-4.55-8.76-6.03-20.76-14.29-34.64-3.64-.16.55-.11,10.36-.06,19.03.07,13.49.07,18.54-.08,19.23h0s0,.01,0,.01c0,.04-.02.06-.03.07l-.14.12v-.19c0-7.33-.07-49.62-.19-54.75.33-11.59-1.56-19.45-5.63-23.36-2.52-2.42-5.26-2.62-6.67-2.52-3.24.22-4.32,3.7-4.01,12.81.62,33.76.47,64.21.47,64.51v.06s-.06.02-.06.02c-.03.01-.83.32-1.79,0l-.06-.02v-.06c0-2.62-.15-45.87-.47-50.82-.62-9.51-3.4-16.02-7.64-17.86-2.07-.9-4.3-.56-6.1.93-2.36,1.95-3.36,5.29-2.61,8.73,1.57,16.68,2.36,59.43,2.36,61.38v.05l-.05.02s-.1.05-.17.08c-.5.22-1.66.72-2.47,1.94l-.16.24v-.29c0-5.38-.39-29.23-.63-34.93-.43-10.13-4.51-17.41-8.33-19.35-.6-.31-1.17-.46-1.68-.46ZM94.71,104.11l-.13-.12c-1.76-1.6-5.41-6.06-6.3-7.25l-.02-.02v-.03c0-.34.06-.85.15-1.7.22-1.97.62-5.64.95-12.78.09-1.98,0-4.19-.09-6.32-.24-5.68-.47-11.05,2.46-12.99,1.96-1.3,5.14-.87,9.72,1.3,5.52,3.34,7.38,5.41,8.74,6.93.3.34.59.66.88.95l.11.11-.14.04c-7.96,2.21-12.84,6.49-15.87,22.74-.21,1.79-.33,5.83-.39,7.77-.02.64-.03,1.07-.04,1.19v.18ZM88.43,96.65c.89,1.19,4.34,5.4,6.13,7.07,0-.21.02-.56.03-.99.06-1.95.18-5.99.39-7.79h0c1.42-7.64,3.29-12.84,5.87-16.35,2.36-3.21,5.44-5.22,9.98-6.5-.26-.27-.52-.55-.79-.85-1.35-1.51-3.2-3.57-8.69-6.89-4.51-2.14-7.63-2.57-9.54-1.31-2.85,1.89-2.62,7.21-2.38,12.84.09,2.14.18,4.35.09,6.34-.33,7.15-.73,10.82-.95,12.79-.09.82-.15,1.32-.15,1.65Z"/>
    <path class="st0" d="M117.6,57.03c2.01,1.24,4.32,2.47,6.94,1.47.11-.04.22-.06.33-.05,2.83.25-.07,9.66-8.85,5.5-3.44-1.63-9.7-4.67-7.87-8.5.73-1.54,2.29-3.06,2.67-2.83,1.89,1.1,3.49,2.39,6.77,4.41Z"/>
    <path class="st0" d="M124.37,82.84c-2.52,2.2-6.14,7.55-8.81,16.68-.18.62-7.33,1.69-4.88-11.64,1.42-7.71,9.13-10.7,13.69-5.03Z"/>
    <path class="st0" d="M75.28,201c-16.76,8.57-38.29.82-44.49-18.25-2.41-7.41-3.07-15.43-3.78-23.13-.67-7.31-.66-13.46-.79-20.77-.02-1.12.36-1.72.59-2.83.94-4.25,1.47-4.21,2.99-5.35,1.26-.94,1.09-5.34,2.66-9.41,1.95-5.06,4.4-9.65,9.31-12.53,4.36-2.56,8.41-2.2,11.95,1.33,2.05,2.05,3.32,4.92,4.25,7.71,2.83,8.5,3.93,7.55,5.19,7.4.94-2.52-1.15-14.2-9.13-20.77-2.99-3.3-.4-6.55,1.58-7.52,6.58-3.23,17.57-3.16,22.65,6.42,2.91,5.49,4.56,16.52,2.36,18.88-3.3,3.93-7.28,9.24-9.07,14.92-.31.99-.73,1.98-.83,3.02-.07.65.38.84.78.63,3.51-2.57,6.87-5.64,10.76-7.62,8.15-4.16,14.36-2.2,19.76,5.26,3.91,5.39,4.86,14.21,4.25,20.93-1.79,19.39-15.73,34-31,41.7Z"/>
    <path d="M70.49,140.92l-.17-.04c2.67-11.62,7.3-18.32,13.75-19.89,3.89-.95,9.82-4.73,10.82-10.15,1.04-5.67-3.37-12.06-12.73-18.49-5.07-3.48-12.09-5.72-19.78-6.31-6.7-.52-13.24.34-17.05,2.23-2.16,1.07-3.34,2.41-3.41,3.88-.09,1.87,1.62,3.96,4.94,6.04,7.82,4.9,13.1,11.24,15.7,18.85,2.06,6.02,1.77,11.12,1.67,12.79-.01.24-.02.42-.02.53h-.18c0-.11.01-.29.02-.54.73-12.87-5.41-24.05-17.29-31.48-3.43-2.15-5.12-4.23-5.02-6.19.08-1.53,1.29-2.93,3.51-4.03,3.85-1.9,10.42-2.76,17.15-2.25,7.72.59,14.77,2.85,19.86,6.34,5.1,3.5,8.74,6.97,10.83,10.33,1.8,2.88,2.46,5.69,1.97,8.34-1.01,5.5-7.01,9.33-10.95,10.29-6.39,1.56-10.97,8.21-13.62,19.76Z"/>
    <path d="M61.26,203.64c-3.11,0-6.37-.37-9.57-1.19-5.03-1.3-9.37-3.55-12.92-6.69-4.1-3.63-7.01-8.36-8.65-14.06-3.19-11.1-4.48-29.85-3.94-57.32h.35c-.54,27.45.75,46.16,3.93,57.23,3.85,13.4,13.72,18.55,21.32,20.51,10.53,2.72,21.73.42,25.59-3.44l.25.25c-2.74,2.74-9.12,4.72-16.35,4.72Z"/>
  </g>
  <g>
    <path class="st3" d="M199.1,67.71h12.13l-19.26,56.67h-13.1l-19.23-56.67h12.13l10.66,33.72c.59,1.99,1.21,4.31,1.84,6.96.63,2.65,1.03,4.49,1.18,5.52.28-2.38,1.25-6.54,2.91-12.48l10.74-33.72Z"/>
    <path class="st3" d="M251,124.38h-32.64v-56.67h32.64v9.85h-20.62v12.44h19.19v9.85h-19.19v14.61h20.62v9.92Z"/>
    <path class="st3" d="M309.84,95.5c0,9.33-2.66,16.47-7.97,21.44-5.31,4.96-12.98,7.44-23.01,7.44h-16.05v-56.67h17.79c9.25,0,16.44,2.44,21.55,7.33,5.12,4.88,7.67,11.71,7.67,20.47ZM297.36,95.81c0-12.17-5.38-18.26-16.12-18.26h-6.4v36.9h5.16c11.58,0,17.37-6.21,17.37-18.64Z"/>
    <path class="st3" d="M356.28,124.38l-4.11-13.49h-20.66l-4.11,13.49h-12.95l20-56.9h14.69l20.08,56.9h-12.95ZM349.3,100.81c-3.8-12.22-5.94-19.13-6.42-20.74-.48-1.6-.82-2.87-1.03-3.8-.85,3.31-3.29,11.49-7.33,24.54h14.77Z"/>
    <path class="st3" d="M411.05,124.38l-4.11-13.49h-20.66l-4.11,13.49h-12.95l20-56.9h14.69l20.08,56.9h-12.95ZM404.07,100.81c-3.8-12.22-5.94-19.13-6.42-20.74-.48-1.6-.82-2.87-1.03-3.8-.85,3.31-3.29,11.49-7.33,24.54h14.77Z"/>
    <path class="st3" d="M481.4,124.38h-15.27l-24.65-42.87h-.35c.49,7.57.74,12.97.74,16.2v26.67h-10.74v-56.67h15.16l24.61,42.44h.27c-.39-7.36-.58-12.57-.58-15.62v-26.82h10.81v56.67Z"/>
    <path class="st3" d="M517.53,124.38h-12.02v-46.67h-15.39v-10h42.79v10h-15.39v46.67Z"/>
    <path class="st3" d="M576.33,124.38l-4.11-13.49h-20.66l-4.11,13.49h-12.95l20-56.9h14.69l20.08,56.9h-12.95ZM569.35,100.81c-3.8-12.22-5.94-19.13-6.42-20.74-.48-1.6-.82-2.87-1.03-3.8-.85,3.31-3.29,11.49-7.33,24.54h14.77Z"/>
  </g>
  <g>
    <path class="st3" d="M160.99,183.99c2.46,1.51,6.05,2.77,9.83,2.77,5.61,0,8.89-2.96,8.89-7.25,0-3.97-2.27-6.24-8.01-8.45-6.93-2.46-11.22-6.05-11.22-12.04,0-6.62,5.48-11.54,13.74-11.54,4.35,0,7.5,1.01,9.39,2.08l-1.51,4.48c-1.39-.76-4.22-2.02-8.07-2.02-5.8,0-8.01,3.47-8.01,6.37,0,3.97,2.58,5.93,8.45,8.2,7.19,2.77,10.84,6.24,10.84,12.48,0,6.56-4.85,12.23-14.88,12.23-4.1,0-8.57-1.2-10.84-2.71l1.39-4.6Z"/>
    <path class="st3" d="M214.82,170.76h-16.52v15.32h18.41v4.6h-23.89v-42.49h22.95v4.6h-17.46v13.43h16.52v4.54Z"/>
    <path class="st3" d="M223.84,190.68v-42.49h5.99l13.62,21.5c3.15,4.98,5.61,9.46,7.63,13.81l.13-.06c-.5-5.67-.63-10.84-.63-17.46v-17.78h5.17v42.49h-5.55l-13.49-21.56c-2.96-4.73-5.8-9.58-7.94-14.18l-.19.06c.32,5.36.44,10.46.44,17.53v18.16h-5.17Z"/>
    <path class="st3" d="M270.8,148.19v42.49h-5.48v-42.49h5.48Z"/>
    <path class="st3" d="M316.69,168.99c0,14.63-8.89,22.38-19.73,22.38s-19.1-8.7-19.1-21.56c0-13.49,8.38-22.32,19.73-22.32s19.1,8.89,19.1,21.5ZM283.72,169.68c0,9.08,4.92,17.21,13.55,17.21s13.62-8.01,13.62-17.65c0-8.45-4.41-17.27-13.55-17.27s-13.62,8.38-13.62,17.71Z"/>
    <path class="st3" d="M323.82,148.75c2.77-.57,6.75-.88,10.53-.88,5.86,0,9.65,1.07,12.29,3.47,2.14,1.89,3.34,4.79,3.34,8.07,0,5.61-3.53,9.33-8.01,10.84v.19c3.28,1.13,5.23,4.16,6.24,8.57,1.39,5.93,2.4,10.02,3.28,11.66h-5.67c-.69-1.2-1.64-4.85-2.84-10.15-1.26-5.86-3.53-8.07-8.51-8.26h-5.17v18.41h-5.48v-41.92ZM329.3,168.11h5.61c5.86,0,9.58-3.22,9.58-8.07,0-5.48-3.97-7.88-9.77-7.94-2.65,0-4.54.25-5.42.5v15.51Z"/>
    <path class="st3" d="M371.1,148.19h5.48v37.89h18.16v4.6h-23.64v-42.49Z"/>
    <path class="st3" d="M406.34,148.19v42.49h-5.48v-42.49h5.48Z"/>
    <path class="st3" d="M425.25,190.68l-13.87-42.49h5.93l6.62,20.93c1.83,5.74,3.4,10.91,4.54,15.89h.13c1.2-4.92,2.96-10.28,4.85-15.82l7.19-20.99h5.86l-15.19,42.49h-6.05Z"/>
    <path class="st3" d="M456.58,148.19v42.49h-5.48v-42.49h5.48Z"/>
    <path class="st3" d="M466.16,190.68v-42.49h5.99l13.62,21.5c3.15,4.98,5.61,9.46,7.63,13.81l.13-.06c-.5-5.67-.63-10.84-.63-17.46v-17.78h5.17v42.49h-5.55l-13.49-21.56c-2.96-4.73-5.8-9.58-7.94-14.18l-.19.06c.32,5.36.44,10.46.44,17.53v18.16h-5.17Z"/>
    <path class="st3" d="M539.98,188.79c-2.46.88-7.31,2.33-13.05,2.33-6.43,0-11.73-1.64-15.89-5.61-3.66-3.53-5.93-9.2-5.93-15.82.06-12.67,8.76-21.94,23.01-21.94,4.92,0,8.76,1.07,10.59,1.95l-1.32,4.48c-2.27-1.01-5.11-1.83-9.39-1.83-10.34,0-17.08,6.43-17.08,17.08s6.49,17.15,16.39,17.15c3.59,0,6.05-.5,7.31-1.13v-12.67h-8.64v-4.41h14v20.43Z"/>
  </g>
</svg>